<svg width="57" height="49" viewBox="0 0 57 49" fill="none" xmlns="http://www.w3.org/2000/svg">
<path fill-rule="evenodd" clip-rule="evenodd" d="M0 4.08333C0 3.00037 0.428954 1.96176 1.19249 1.19598C1.95604 0.430208 2.99162 0 4.07143 0H52.9286C54.0084 0 55.044 0.430208 55.8075 1.19598C56.5711 1.96176 57 3.00037 57 4.08333C57 5.1663 56.5711 6.20491 55.8075 6.97069C55.044 7.73646 54.0084 8.16667 52.9286 8.16667H4.07143C2.99162 8.16667 1.95604 7.73646 1.19249 6.97069C0.428954 6.20491 0 5.1663 0 4.08333ZM0 24.5C0 23.417 0.428954 22.3784 1.19249 21.6126C1.95604 20.8469 2.99162 20.4167 4.07143 20.4167H52.9286C54.0084 20.4167 55.044 20.8469 55.8075 21.6126C56.5711 22.3784 57 23.417 57 24.5C57 25.583 56.5711 26.6216 55.8075 27.3874C55.044 28.1531 54.0084 28.5833 52.9286 28.5833H4.07143C2.99162 28.5833 1.95604 28.1531 1.19249 27.3874C0.428954 26.6216 0 25.583 0 24.5ZM0 44.9167C0 43.8337 0.428954 42.7951 1.19249 42.0293C1.95604 41.2635 2.99162 40.8333 4.07143 40.8333H24.4286C25.5084 40.8333 26.544 41.2635 27.3075 42.0293C28.071 42.7951 28.5 43.8337 28.5 44.9167C28.5 45.9996 28.071 47.0382 27.3075 47.804C26.544 48.5698 25.5084 49 24.4286 49H4.07143C2.99162 49 1.95604 48.5698 1.19249 47.804C0.428954 47.0382 0 45.9996 0 44.9167Z" fill="black"/>
</svg>
