<svg width="137" height="180" viewBox="0 0 137 180" fill="none" xmlns="http://www.w3.org/2000/svg">
<path d="M68.2495 179.931C55.9347 169.164 44.52 157.36 34.1247 144.642C18.5249 125.543 8.61564e-06 97.1 8.61564e-06 69.996C-0.0138184 41.6881 16.6163 16.1615 42.1301 5.32796C67.6439 -5.5056 97.0124 0.48924 116.531 20.5151C129.366 33.6134 136.557 51.4308 136.499 69.996C136.499 97.1 117.974 125.543 102.374 144.642C91.979 157.36 80.5643 169.164 68.2495 179.931ZM68.2495 40.0136C57.7995 40.0136 48.1434 45.7282 42.9184 55.0048C37.6935 64.2814 37.6935 75.7106 42.9184 84.9872C48.1434 94.2637 57.7995 99.9783 68.2495 99.9783C84.4037 99.9783 97.4992 86.5548 97.4992 69.996C97.4992 53.4372 84.4037 40.0136 68.2495 40.0136Z" fill="#2E3A59"/>
</svg>
