<svg width="24" height="24" viewBox="0 0 24 24" fill="none" xmlns="http://www.w3.org/2000/svg">
<path opacity="0.1" fill-rule="evenodd" clip-rule="evenodd" d="M0 12C0 5.37258 5.37258 0 12 0C18.6274 0 24 5.37258 24 12C24 18.6274 18.6274 24 12 24C5.37258 24 0 18.6274 0 12Z" fill="black"/>
<path d="M4 12.0481C4.00093 16.0079 6.86262 19.3794 10.7494 20V14.3744H8.71984V12.0481H10.7518V10.2773C10.6609 9.43821 10.9458 8.60193 11.5291 7.99529C12.1123 7.38865 12.9336 7.07452 13.7701 7.1381C14.3705 7.14786 14.9694 7.20166 15.562 7.29909V9.2784H14.5508C14.2027 9.23252 13.8527 9.3482 13.5995 9.59286C13.3462 9.83751 13.2171 10.1847 13.2485 10.5365V12.0481H15.4652L15.1108 14.3752H13.2485V20C17.4519 19.3316 20.3995 15.4689 19.9559 11.2103C19.5122 6.95166 15.8326 3.78795 11.5828 4.01111C7.33297 4.23428 4.00068 7.76619 4 12.0481Z" fill="black"/>
</svg>
