<svg width="18" height="18" viewBox="0 0 18 18" fill="none" xmlns="http://www.w3.org/2000/svg">
<path d="M9.009 1.12133e-06C13.9784 0.00497592 18.0033 4.03661 18 9.006C17.9967 13.9754 13.9664 18.0017 8.997 18C4.02761 17.9983 -1.55498e-06 13.9694 -1.12054e-06 9C0.0029805 4.02716 4.03616 -0.00198296 9.009 1.12133e-06ZM16.2 8.84521C16.1574 4.88409 12.923 1.70142 8.96171 1.72261C5.00043 1.744 1.80041 4.96126 1.80041 8.92261C1.80041 12.8839 5.00043 16.1012 8.96171 16.1226C12.923 16.1438 16.1574 12.9611 16.2 9.00001L16.2 8.84521ZM8.1 4.50001L9.9 4.50001L9.9 6.30001L8.1 6.30001L8.1 4.50001ZM8.1 8.10001L9.9 8.10001L9.9 13.5L8.1 13.5L8.1 8.10001Z" fill="#2E3A59"/>
</svg>
