<svg width="14" height="50" viewBox="0 0 14 50" fill="none" xmlns="http://www.w3.org/2000/svg">
<line x1="7" y1="4.37114e-08" x2="7" y2="36" stroke="url(#paint0_linear)" stroke-width="2" stroke-dasharray="3 3"/>
<path fill-rule="evenodd" clip-rule="evenodd" d="M0 40.6542C0 36.9743 3.0751 34 6.79476 34C10.5249 34 13.6 36.9743 13.6 40.6542C13.6 42.5086 12.9256 44.2301 11.8156 45.6893C10.591 47.2988 9.08173 48.7012 7.38283 49.8019C6.99401 50.0563 6.6431 50.0755 6.21636 49.8019C4.50779 48.7012 2.99847 47.2988 1.7844 45.6893C0.673587 44.2301 0 42.5086 0 40.6542ZM4.55552 40.8614C4.55552 42.0942 5.56146 43.0638 6.79489 43.0638C8.02913 43.0638 9.04475 42.0942 9.04475 40.8614C9.04475 39.6383 8.02913 38.6215 6.79489 38.6215C5.56146 38.6215 4.55552 39.6383 4.55552 40.8614Z" fill="white"/>
<defs>
<linearGradient id="paint0_linear" x1="7.50002" y1="34.5" x2="7.50001" y2="-5.47841e-07" gradientUnits="userSpaceOnUse">
<stop offset="0.505208" stop-color="#FF0000"/>
<stop offset="1" stop-color="#FFD646" stop-opacity="0.4"/>
</linearGradient>
</defs>
</svg>
