<svg width="15" height="11" viewBox="0 0 15 11" fill="none" xmlns="http://www.w3.org/2000/svg">
<path d="M14.3408 3.31394H12.7019L12.2464 2.17532C12.0207 1.60531 11.6284 1.11656 11.1207 0.772832C10.613 0.429105 10.0135 0.246359 9.40034 0.248431H5.92398C5.31082 0.246387 4.71128 0.42914 4.20352 0.772858C3.69577 1.11658 3.30337 1.60531 3.07749 2.17532L2.62202 3.31394H0.983503C0.933603 3.31392 0.884356 3.32529 0.839508 3.34716C0.794659 3.36904 0.75539 3.40085 0.724687 3.44019C0.693984 3.47952 0.672655 3.52534 0.662324 3.57415C0.651992 3.62297 0.652929 3.6735 0.665064 3.7219L0.829344 4.37899C0.847063 4.45003 0.888034 4.51311 0.945737 4.55818C1.00344 4.60326 1.07456 4.62774 1.14778 4.62773H1.69746C1.50836 4.79055 1.35649 4.99215 1.25218 5.21883C1.14786 5.44552 1.09354 5.69199 1.09289 5.94152V7.25531C1.09427 7.6784 1.24999 8.08645 1.53084 8.40289V9.88212C1.53074 9.9972 1.55332 10.1112 1.5973 10.2175C1.64127 10.3239 1.70577 10.4205 1.78712 10.5019C1.86846 10.5834 1.96505 10.6479 2.07137 10.692C2.17769 10.7361 2.29166 10.7588 2.40675 10.7588H3.28265C3.51495 10.7588 3.73774 10.6665 3.90201 10.5022C4.06627 10.338 4.15855 10.1152 4.15855 9.8829V9.00704H11.1658V9.8829C11.1658 10.1152 11.2581 10.338 11.4223 10.5022C11.5866 10.6665 11.8094 10.7588 12.0417 10.7588H12.9176C13.1499 10.7588 13.3727 10.6665 13.5369 10.5022C13.7012 10.338 13.7935 10.1152 13.7935 9.8829V8.40367C14.0746 8.08706 14.2303 7.67868 14.2314 7.25531V5.94152C14.2308 5.69203 14.1765 5.44558 14.0723 5.2189C13.968 4.99222 13.8163 4.79061 13.6273 4.62773H14.1765C14.2498 4.62774 14.3209 4.60326 14.3786 4.55818C14.4363 4.51311 14.4773 4.45003 14.495 4.37899L14.6593 3.72229C14.6713 3.67386 14.6722 3.62333 14.6618 3.57451C14.6514 3.5257 14.6301 3.47989 14.5993 3.44057C14.5686 3.40125 14.5293 3.36944 14.4845 3.34757C14.4396 3.3257 14.3903 3.31433 14.3404 3.31433L14.3408 3.31394ZM4.70356 2.8258C4.80115 2.58196 4.96959 2.37297 5.18713 2.22579C5.40467 2.07862 5.66133 2.00003 5.92398 2.00015H9.40034C9.663 2.00003 9.91966 2.07862 10.1372 2.22579C10.3547 2.37297 10.5232 2.58196 10.6208 2.8258L11.1658 4.18825H4.15855L4.70356 2.8258ZM3.28265 7.24987C3.16597 7.25712 3.04908 7.23953 2.93971 7.19825C2.83033 7.15698 2.73097 7.09296 2.64817 7.01043C2.56538 6.9279 2.50105 6.82873 2.45943 6.71949C2.41781 6.61025 2.39986 6.49342 2.40675 6.37673C2.39986 6.26003 2.41781 6.14321 2.45943 6.03397C2.50105 5.92473 2.56538 5.82556 2.64817 5.74303C2.73097 5.6605 2.83033 5.59648 2.93971 5.55521C3.04908 5.51393 3.16597 5.49634 3.28265 5.50359C3.80819 5.50359 4.5965 6.28953 4.5965 6.8131C4.5965 7.33667 3.80819 7.24987 3.28265 7.24987ZM12.0417 7.24987C11.5161 7.24987 10.7278 7.33706 10.7278 6.81349C10.7278 6.28992 11.5161 5.50359 12.0417 5.50359C12.1584 5.49634 12.2752 5.51393 12.3846 5.55521C12.494 5.59648 12.5934 5.6605 12.6762 5.74303C12.7589 5.82556 12.8233 5.92473 12.8649 6.03397C12.9065 6.14321 12.9245 6.26003 12.9176 6.37673C12.9245 6.49342 12.9065 6.61025 12.8649 6.71949C12.8233 6.82873 12.7589 6.9279 12.6762 7.01043C12.5934 7.09296 12.494 7.15698 12.3846 7.19825C12.2752 7.23953 12.1584 7.25712 12.0417 7.24987Z" fill="#242A2E"/>
</svg>
