<svg width="8" height="11" viewBox="0 0 8 11" fill="none" xmlns="http://www.w3.org/2000/svg">
<path d="M4.51676 4.86129C2.95661 4.51678 2.45186 4.1606 2.45186 3.60588C2.45186 2.96942 3.14704 2.52565 4.31027 2.52565C5.53544 2.52565 5.98972 3.02198 6.03102 3.75186H7.55216C7.53653 3.22328 7.30921 2.71497 6.90762 2.31061C6.50603 1.90625 5.95411 1.62994 5.34272 1.52717V0.248413H3.27782V1.50965C1.94252 1.7549 0.868767 2.49062 0.868767 3.61756C0.868767 4.96639 2.18342 5.63788 4.10378 6.03105C5.82453 6.38139 6.16868 6.89523 6.16868 7.43827C6.16868 7.84116 5.83141 8.48346 4.31027 8.48346C2.89237 8.48346 2.33485 7.94627 2.25913 7.25726H0.744873C0.827469 8.53601 1.95628 9.25422 3.27782 9.49362V10.7588H5.34272V9.50336C6.6849 9.28731 7.75177 8.62749 7.75177 7.43048C7.75177 5.77218 6.07691 5.20579 4.51676 4.86129Z" fill="#242A2E"/>
</svg>
