<svg width="15" height="19" viewBox="0 0 15 19" fill="none" xmlns="http://www.w3.org/2000/svg">
<path d="M7.50004 19C8.85332 17.863 10.1077 16.6165 11.25 15.2736C12.9643 13.2569 15 10.2534 15 7.39128C15.0015 4.40209 13.174 1.70659 10.3703 0.562611C7.56658 -0.581368 4.33927 0.0516618 2.19435 2.16631C0.783867 3.54944 -0.00625896 5.43088 3.71933e-05 7.39128C3.71933e-05 10.2534 2.03578 13.2569 3.75006 15.2736C4.89239 16.6165 6.14676 17.863 7.50004 19ZM7.50004 4.22527C8.64838 4.22527 9.7095 4.82871 10.2837 5.80828C10.8578 6.78784 10.8578 7.99472 10.2837 8.97429C9.7095 9.95386 8.64838 10.5573 7.50004 10.5573C5.72484 10.5573 4.28577 9.13982 4.28577 7.39128C4.28577 5.64274 5.72484 4.22527 7.50004 4.22527Z" fill="#2E3A59"/>
</svg>
