<svg width="22" height="22" viewBox="0 0 22 22" fill="none" xmlns="http://www.w3.org/2000/svg">
<path d="M11.0001 9.28125L11.0001 18.5625" stroke="white" stroke-width="1.5" stroke-linecap="round" stroke-linejoin="round"/>
<path d="M11.0001 3.4375L11.0001 5.84375" stroke="white" stroke-width="1.5" stroke-linecap="round" stroke-linejoin="round"/>
<path d="M11.0001 9.28125C11.9493 9.28125 12.7188 8.51174 12.7188 7.5625C12.7188 6.61326 11.9493 5.84375 11.0001 5.84375C10.0508 5.84375 9.28131 6.61326 9.28131 7.5625C9.28131 8.51174 10.0508 9.28125 11.0001 9.28125Z" stroke="white" stroke-width="1.5" stroke-linecap="round" stroke-linejoin="round"/>
<path d="M17.1876 16.1562L17.1876 18.5625" stroke="white" stroke-width="1.5" stroke-linecap="round" stroke-linejoin="round"/>
<path d="M17.1876 3.4375L17.1876 12.7188" stroke="white" stroke-width="1.5" stroke-linecap="round" stroke-linejoin="round"/>
<path d="M17.1876 16.1562C18.1368 16.1562 18.9063 15.3867 18.9063 14.4375C18.9063 13.4883 18.1368 12.7188 17.1876 12.7188C16.2383 12.7188 15.4688 13.4883 15.4688 14.4375C15.4688 15.3867 16.2383 16.1562 17.1876 16.1562Z" stroke="white" stroke-width="1.5" stroke-linecap="round" stroke-linejoin="round"/>
<path d="M4.81261 13.4062L4.81256 18.5625" stroke="white" stroke-width="1.5" stroke-linecap="round" stroke-linejoin="round"/>
<path d="M4.81256 3.4375L4.81261 9.96875" stroke="white" stroke-width="1.5" stroke-linecap="round" stroke-linejoin="round"/>
<path d="M4.81256 13.4062C5.7618 13.4062 6.53131 12.6367 6.53131 11.6875C6.53131 10.7383 5.7618 9.96875 4.81256 9.96875C3.86332 9.96875 3.09381 10.7383 3.09381 11.6875C3.09381 12.6367 3.86332 13.4062 4.81256 13.4062Z" stroke="white" stroke-width="1.5" stroke-linecap="round" stroke-linejoin="round"/>
</svg>
