<svg width="36" height="38" viewBox="0 0 36 38" fill="none" xmlns="http://www.w3.org/2000/svg">
<g filter="url(#filter0_d)">
<path d="M23 25H13C11.8954 25 11 24.1046 11 23V10H9V8H13V7C13 5.89543 13.8954 5 15 5H21C22.1046 5 23 5.89543 23 7V8H27V10H25V23C25 24.1046 24.1046 25 23 25ZM13 10V23H23V10H13ZM15 7V8H21V7H15ZM21 21H19V12H21V21ZM17 21H15V12H17V21Z" fill="#D80606"/>
</g>
<defs>
<filter id="filter0_d" x="0" y="0" width="36" height="38" filterUnits="userSpaceOnUse" color-interpolation-filters="sRGB">
<feFlood flood-opacity="0" result="BackgroundImageFix"/>
<feColorMatrix in="SourceAlpha" type="matrix" values="0 0 0 0 0 0 0 0 0 0 0 0 0 0 0 0 0 0 127 0"/>
<feOffset dy="4"/>
<feGaussianBlur stdDeviation="4.5"/>
<feColorMatrix type="matrix" values="0 0 0 0 0.625 0 0 0 0 0.625 0 0 0 0 0.625 0 0 0 0.25 0"/>
<feBlend mode="normal" in2="BackgroundImageFix" result="effect1_dropShadow"/>
<feBlend mode="normal" in="SourceGraphic" in2="effect1_dropShadow" result="shape"/>
</filter>
</defs>
</svg>
