<svg width="72" height="72" viewBox="0 0 72 72" fill="none" xmlns="http://www.w3.org/2000/svg">
<rect width="72" height="72" rx="36" fill="#FFF0DF"/>
<path d="M20.9981 45.9981C20.8668 45.9981 20.7367 45.9722 20.6154 45.922C20.4941 45.8717 20.3838 45.798 20.291 45.7052C20.1981 45.6123 20.1245 45.5021 20.0742 45.3808C20.024 45.2594 19.9981 45.1294 19.9981 44.9981L19.9982 39.6612C19.4647 39.9139 18.876 40.0275 18.2868 39.9916C17.6976 39.9556 17.1271 39.7712 16.6283 39.4556C16.1295 39.1399 15.7187 38.7032 15.434 38.1861C15.1493 37.669 15 37.0884 15 36.4981C15 35.9078 15.1493 35.3271 15.434 34.81C15.7187 34.2929 16.1295 33.8562 16.6283 33.5406C17.1271 33.2249 17.6976 33.0405 18.2868 33.0046C18.876 32.9686 19.4647 33.0823 19.9982 33.3349L19.9981 27.9981C19.9981 27.8668 20.024 27.7367 20.0742 27.6154C20.1245 27.4941 20.1981 27.3838 20.291 27.291C20.3838 27.1981 20.4941 27.1244 20.6154 27.0742C20.7367 27.0239 20.8668 26.9981 20.9981 26.9981L26.8349 26.9981C26.5823 26.4647 26.4686 25.876 26.5046 25.2868C26.5405 24.6976 26.7249 24.1271 27.0406 23.6283C27.3562 23.1295 27.7929 22.7187 28.31 22.434C28.8271 22.1493 29.4078 22 29.9981 22C30.5883 22 31.169 22.1493 31.6861 22.434C32.2032 22.7187 32.6399 23.1295 32.9556 23.6283C33.2712 24.1271 33.4556 24.6976 33.4916 25.2868C33.5275 25.876 33.4139 26.4647 33.1612 26.9981L38.998 26.9981C39.2632 26.9981 39.5176 27.1034 39.7051 27.291C39.8927 27.4785 39.998 27.7328 39.998 27.9981L39.9981 33.3349C39.4646 33.0823 38.8759 32.9686 38.2867 33.0046C37.6976 33.0405 37.127 33.2249 36.6283 33.5406C36.1295 33.8562 35.7186 34.2929 35.4339 34.81C35.1492 35.3271 35 35.9078 35 36.4981C35 37.0884 35.1492 37.669 35.4339 38.1861C35.7186 38.7032 36.1295 39.1399 36.6283 39.4556C37.127 39.7712 37.6976 39.9556 38.2867 39.9916C38.8759 40.0275 39.4646 39.9139 39.9981 39.6612L39.998 44.9981C39.998 45.2633 39.8927 45.5177 39.7051 45.7052C39.5176 45.8927 39.2633 45.9981 38.998 45.9981L20.9981 45.9981Z" fill="#FFC542" stroke="black" stroke-width="2" stroke-linecap="round" stroke-linejoin="round"/>
<path d="M57 43.9612C57 44.0715 56.9784 44.1808 56.9366 44.2827C56.8947 44.3846 56.8333 44.4772 56.7559 44.5552C56.6785 44.6332 56.5866 44.6951 56.4855 44.7373C56.3844 44.7796 56.276 44.8013 56.1666 44.8013L51.7189 44.8012C51.9294 45.2494 52.0242 45.7439 51.9942 46.2389C51.9642 46.7338 51.8105 47.2131 51.5475 47.6321C51.2844 48.0511 50.9205 48.3963 50.4895 48.6354C50.0586 48.8746 49.5746 49 49.0827 49C48.5908 49 48.1068 48.8746 47.6759 48.6354C47.2449 48.3963 46.881 48.0511 46.6179 47.6321C46.3549 47.2131 46.2012 46.7338 46.1712 46.2389C46.1413 45.7439 46.236 45.2494 46.4465 44.8012L41.9988 44.8013C41.8894 44.8013 41.781 44.7796 41.6799 44.7373C41.5788 44.6951 41.4869 44.6332 41.4095 44.5552C41.3321 44.4772 41.2707 44.3846 41.2288 44.2827C41.187 44.1808 41.1654 44.0715 41.1654 43.9612L41.1655 39.0579C40.7209 39.2702 40.2302 39.3656 39.7392 39.3354C39.2482 39.3052 38.7727 39.1503 38.357 38.8851C37.9413 38.62 37.5989 38.2531 37.3617 37.8187C37.1244 37.3844 37 36.8965 37 36.4007C37 35.9048 37.1244 35.417 37.3617 34.9826C37.5989 34.5482 37.9413 34.1814 38.357 33.9162C38.7727 33.651 39.2482 33.4961 39.7392 33.4659C40.2302 33.4357 40.7209 33.5312 41.1655 33.7434L41.1654 28.8401C41.1654 28.6173 41.2532 28.4037 41.4095 28.2461C41.5658 28.0886 41.7778 28.0001 41.9988 28.0001L46.4465 28C46.236 28.4481 46.1412 28.9427 46.1712 29.4377C46.2012 29.9326 46.3548 30.4119 46.6179 30.8309C46.881 31.2499 47.2449 31.595 47.6759 31.8342C48.1068 32.0734 48.5908 32.1988 49.0827 32.1988C49.5746 32.1988 50.0586 32.0734 50.4895 31.8342C50.9205 31.595 51.2844 31.2499 51.5475 30.8309C51.8105 30.4119 51.9642 29.9326 51.9942 29.4377C52.0241 28.9427 51.9294 28.4481 51.7189 28L56.1666 28.0001C56.3876 28.0001 56.5996 28.0886 56.7559 28.2461C56.9122 28.4036 57 28.6173 57 28.8401L57 43.9612Z" fill="#FFC542" stroke="black" stroke-width="2" stroke-linecap="round" stroke-linejoin="round"/>
</svg>
