<svg width="72" height="72" viewBox="0 0 72 72" fill="none" xmlns="http://www.w3.org/2000/svg">
<rect width="72" height="72" rx="36" fill="#FFF0DF"/>
<path d="M23 47.0439H43C44.1046 47.0439 45 46.1485 45 45.0439V31.0439C45 29.9394 44.1046 29.0439 43 29.0439L23 29.0439C21.8954 29.0439 21 29.9394 21 31.0439L21 45.0439C21 46.1485 21.8954 47.0439 23 47.0439Z" fill="#FFC542" stroke="black" stroke-width="2" stroke-linecap="round" stroke-linejoin="round"/>
<path d="M37 51.0439H29" stroke="black" stroke-width="2" stroke-linecap="round" stroke-linejoin="round"/>
<path d="M33.8329 27.1872V21.7425C33.8329 21.5455 33.9111 21.3567 34.0503 21.2175C34.1896 21.0782 34.3784 21 34.5753 21H49.4246C49.6215 21 49.8104 21.0782 49.9496 21.2175C50.0889 21.3567 50.1671 21.5455 50.1671 21.7425V27.1872C50.1671 34.9845 43.5493 37.5678 42.2279 38.0059C42.0802 38.0567 41.9197 38.0567 41.772 38.0059C40.4506 37.5678 33.8329 34.9845 33.8329 27.1872Z" fill="#FFC542" stroke="black" stroke-width="1.5" stroke-linecap="round" stroke-linejoin="round"/>
<path d="M46.0835 26.1973L40.6387 31.3945L37.9164 28.7959" fill="#FFC542"/>
<path d="M46.0835 26.1973L40.6387 31.3945L37.9164 28.7959" stroke="black" stroke-width="1.5" stroke-linecap="round" stroke-linejoin="round"/>
</svg>
