<svg width="72" height="72" viewBox="0 0 72 72" fill="none" xmlns="http://www.w3.org/2000/svg">
<rect width="72" height="72" rx="36" fill="#FFF0DF"/>
<path d="M45 35H19C18.4477 35 18 35.4477 18 36V50C18 50.5523 18.4477 51 19 51H45C45.5523 51 46 50.5523 46 50V36C46 35.4477 45.5523 35 45 35Z" fill="#FFC542" stroke="black" stroke-width="2" stroke-linecap="round" stroke-linejoin="round"/>
<path d="M32 47C34.2091 47 36 45.2091 36 43C36 40.7909 34.2091 39 32 39C29.7909 39 28 40.7909 28 43C28 45.2091 29.7909 47 32 47Z" stroke="black" stroke-width="2" stroke-linecap="round" stroke-linejoin="round"/>
<path d="M38 35L46 42" stroke="black" stroke-width="2" stroke-linecap="round" stroke-linejoin="round"/>
<path d="M38 51L46 44" stroke="black" stroke-width="2" stroke-linecap="round" stroke-linejoin="round"/>
<path d="M26 35L18 42" stroke="black" stroke-width="2" stroke-linecap="round" stroke-linejoin="round"/>
<path d="M26 51L18 44" stroke="black" stroke-width="2" stroke-linecap="round" stroke-linejoin="round"/>
<path d="M53.1707 33.3786L32.5008 17.6066C32.0617 17.2716 31.4342 17.3559 31.0992 17.795L22.6066 28.9249C22.2715 29.364 22.3559 29.9915 22.7949 30.3265L43.4648 46.0986C43.9039 46.4336 44.5314 46.3492 44.8664 45.9102L53.359 34.7803C53.6941 34.3412 53.6097 33.7137 53.1707 33.3786Z" fill="#FFC542" stroke="black" stroke-width="2" stroke-linecap="round" stroke-linejoin="round"/>
<path d="M35.5563 35.0326C37.3126 36.3727 39.8226 36.0353 41.1627 34.2791C42.5028 32.5228 42.1655 30.0127 40.4092 28.6726C38.653 27.3325 36.1429 27.6699 34.8028 29.4261C33.4627 31.1824 33.8 33.6925 35.5563 35.0326Z" stroke="black" stroke-width="2" stroke-linecap="round" stroke-linejoin="round"/>
<path d="M47.6057 29.1323L49.7194 39.5502" stroke="black" stroke-width="2" stroke-linecap="round" stroke-linejoin="round"/>
<path d="M37.8998 41.8523L48.5061 41.1402" stroke="black" stroke-width="2" stroke-linecap="round" stroke-linejoin="round"/>
<path d="M38.0658 21.8529L27.4595 22.565" stroke="black" stroke-width="2" stroke-linecap="round" stroke-linejoin="round"/>
<path d="M28.3599 34.5729L26.2462 24.155" stroke="black" stroke-width="2" stroke-linecap="round" stroke-linejoin="round"/>
</svg>
