<svg width="15" height="15" viewBox="0 0 15 15" fill="none" xmlns="http://www.w3.org/2000/svg">
<path d="M8.90748 15H6.09359C5.73034 15 5.41605 14.7548 5.33832 14.4105L5.02369 12.9975C4.60396 12.8191 4.20598 12.596 3.83706 12.3323L2.41697 12.771C2.07065 12.8781 1.69416 12.7367 1.51251 12.4313L0.102471 10.068C-0.0771941 9.76239 -0.0152957 9.37687 0.251669 9.13875L1.35326 8.16375C1.30317 7.72208 1.30317 7.27642 1.35326 6.83475L0.251669 5.862C-0.015689 5.62378 -0.0776119 5.23779 0.102471 4.932L1.50942 2.56725C1.69107 2.26177 2.06756 2.12035 2.41388 2.2275L3.83397 2.66625C4.02264 2.53062 4.21905 2.40542 4.42226 2.29125C4.61733 2.18452 4.81809 2.08789 5.02369 2.00175L5.33909 0.59025C5.41645 0.245977 5.7304 0.000370795 6.09359 0H8.90748C9.27066 0.000370795 9.58461 0.245977 9.66197 0.59025L9.98047 2.0025C10.1975 2.09514 10.4089 2.19981 10.6136 2.316C10.8045 2.42311 10.989 2.54054 11.1663 2.66775L12.5872 2.229C12.9333 2.12225 13.3093 2.26362 13.4909 2.56875L14.8978 4.9335C15.0775 5.23911 15.0156 5.62463 14.7486 5.86275L13.647 6.83775C13.6971 7.27942 13.6971 7.72508 13.647 8.16675L14.7486 9.14175C15.0156 9.37987 15.0775 9.76539 14.8978 10.071L13.4909 12.4357C13.3093 12.7409 12.9333 12.8822 12.5872 12.7755L11.1663 12.3368C10.9865 12.4652 10.7997 12.5841 10.6066 12.693C10.404 12.8069 10.1949 12.9098 9.98047 13.0013L9.66197 14.4105C9.5843 14.7545 9.27043 14.9997 8.90748 15ZM4.11459 10.6718L4.74848 11.1217C4.89138 11.2239 5.04032 11.3178 5.19453 11.403C5.33963 11.4845 5.48904 11.5586 5.64213 11.625L6.36338 11.9318L6.71666 13.5H8.28595L8.63923 11.931L9.36048 11.6243C9.67535 11.4895 9.97421 11.3221 10.2518 11.1248L10.8865 10.6747L12.4643 11.1623L13.2489 9.84375L12.0252 8.7615L12.1118 8.0025C12.1498 7.67052 12.1498 7.33548 12.1118 7.0035L12.0252 6.2445L13.2497 5.16L12.4643 3.84075L10.8865 4.32825L10.2518 3.87825C9.97412 3.68003 9.6753 3.51132 9.36048 3.375L8.63923 3.06825L8.28595 1.5H6.71666L6.36183 3.069L5.64213 3.375C5.48891 3.44028 5.33949 3.51364 5.19453 3.59475C5.04127 3.67975 4.89312 3.77315 4.7508 3.8745L4.11613 4.3245L2.53912 3.837L1.75293 5.16L2.97666 6.24075L2.89008 7.0005C2.85205 7.33248 2.85205 7.66752 2.89008 7.9995L2.97666 8.7585L1.75293 9.84075L2.53757 11.1593L4.11459 10.6718ZM7.49744 10.5C5.78967 10.5 4.40525 9.15685 4.40525 7.5C4.40525 5.84315 5.78967 4.5 7.49744 4.5C9.20521 4.5 10.5896 5.84315 10.5896 7.5C10.5875 9.156 9.20432 10.4979 7.49744 10.5ZM7.49744 6C6.6528 6.00083 5.96517 6.65914 5.95307 7.47851C5.94097 8.29787 6.60887 8.97503 7.45314 8.99934C8.2974 9.02365 9.00552 8.38612 9.04353 7.5675V7.8675V7.5C9.04353 6.67157 8.35132 6 7.49744 6Z" fill="#FFC542"/>
</svg>
