<svg width="17" height="16" viewBox="0 0 17 16" fill="none" xmlns="http://www.w3.org/2000/svg">
<path d="M12.9376 9.70889C12.7434 9.89383 12.6541 10.1613 12.6984 10.4236L13.365 14.0486C13.4213 14.3558 13.2893 14.6668 13.0276 14.8443C12.7711 15.0285 12.4299 15.0506 12.1502 14.9033L8.82888 13.2013C8.7134 13.1409 8.58517 13.1085 8.45393 13.1048H8.25071C8.18022 13.1151 8.11123 13.1372 8.04824 13.1711L4.72617 14.8812C4.56194 14.9622 4.37597 14.991 4.19374 14.9622C3.7498 14.8797 3.45359 14.4642 3.52633 14.0258L4.19374 10.4007C4.23798 10.1362 4.14875 9.8673 3.95452 9.67942L1.24662 7.10065C1.02015 6.88476 0.941415 6.56058 1.0449 6.26807C1.14539 5.9763 1.40185 5.76337 1.71156 5.71547L5.43858 5.18425C5.72204 5.15551 5.97101 4.98605 6.09849 4.73554L7.74078 1.42734C7.77977 1.35366 7.83001 1.28588 7.89076 1.22841L7.95825 1.17683C7.99349 1.13852 8.03399 1.10683 8.07898 1.08105L8.16072 1.05158L8.2882 1H8.60391C8.88588 1.02873 9.13409 1.19451 9.26383 1.44208L10.9279 4.73554C11.0478 4.97647 11.2811 5.14372 11.5503 5.18425L15.2773 5.71547C15.5922 5.75968 15.8555 5.97335 15.9597 6.26807C16.0579 6.56352 15.9732 6.88771 15.7422 7.10065L12.9376 9.70889Z" stroke="#FFC542" stroke-width="1.2"/>
</svg>
