<svg width="71" height="47" viewBox="0 0 71 47" fill="none" xmlns="http://www.w3.org/2000/svg">
<path d="M22.0156 25.4737C23.4884 22.8784 24.9268 20.3444 26.3644 17.8096C26.5983 17.3974 26.8212 16.9779 27.0661 16.5723C27.1662 16.4078 27.1655 16.2857 27.0726 16.1125C25.684 13.5091 24.3004 10.9023 22.9219 8.29201C22.7458 7.96092 22.5726 7.62837 22.403 7.30531C22.4805 7.19203 22.574 7.23807 22.6486 7.23807C24.622 7.23442 26.5954 7.23807 28.5688 7.22784C28.8019 7.22784 28.9086 7.30678 29.0022 7.50996C29.5869 8.77805 30.1848 10.0396 30.7783 11.3033C30.8389 11.4319 30.904 11.5584 30.9814 11.7162C33.1997 7.14744 36.7555 4.5199 41.8315 4.48043C46.9075 4.44096 50.5079 7.01734 52.8021 11.5503C53.1858 10.777 53.5601 10.0235 53.9343 9.26848C54.2266 8.68377 54.519 8.09906 54.7996 7.50412C54.8954 7.3002 55.0189 7.22857 55.244 7.23003C57.1809 7.23929 59.1172 7.23929 61.0531 7.23003C61.3155 7.23003 61.4025 7.24904 61.2483 7.53554C59.7134 10.378 58.191 13.2284 56.6561 16.0716C56.5399 16.2909 56.5735 16.4429 56.6853 16.641C58.3157 19.5309 59.9422 22.4235 61.5647 25.3188C61.5816 25.3495 61.594 25.3824 61.6378 25.4708H61.2366C59.3735 25.4708 57.509 25.4621 55.6467 25.4803C55.3303 25.4803 55.1775 25.378 55.0357 25.1076C54.1243 23.3629 53.1953 21.6278 52.2715 19.8905C52.2379 19.8269 52.1984 19.767 52.1253 19.6522C52.0135 19.862 51.917 20.0374 51.8249 20.2157C50.9727 21.8668 50.1161 23.5157 49.2748 25.1726C49.1608 25.3985 49.0351 25.4789 48.7808 25.4774C46.8322 25.4657 44.8837 25.4716 42.9337 25.4716H42.6077C43.2516 24.3365 43.8729 23.2423 44.4926 22.1475C45.5529 20.2754 46.6139 18.4046 47.6757 16.535C47.7157 16.4771 47.7371 16.4084 47.7371 16.338C47.7371 16.2676 47.7157 16.1989 47.6757 16.141C46.9682 14.8254 46.269 13.5057 45.578 12.1818C45.3215 11.6877 45.1329 11.1629 44.7287 10.7515C43.1939 9.18589 40.5882 9.19393 39.0534 10.7602C38.6061 11.2163 38.3846 11.7952 38.0893 12.3338C37.4169 13.5588 36.7737 14.8006 36.0977 16.0219C35.9559 16.277 35.9939 16.4546 36.1225 16.6833C37.7465 19.5621 39.3664 22.4437 40.9822 25.3283C40.9997 25.3583 41.0136 25.3912 41.0319 25.4284C40.9632 25.5088 40.8733 25.4686 40.798 25.4686C38.8495 25.4686 36.9009 25.4686 34.9509 25.4759C34.7316 25.4759 34.6125 25.4153 34.5043 25.2092C33.5615 23.4134 32.604 21.6278 31.6487 19.8371C31.6268 19.7955 31.5983 19.756 31.5333 19.6529C31.2665 20.1646 31.0216 20.6397 30.7746 21.1147C30.0564 22.5068 29.3394 23.8999 28.6236 25.2939C28.5622 25.4138 28.5015 25.4752 28.3532 25.4752C26.2584 25.4716 24.1659 25.4737 22.0156 25.4737Z" fill="#030303"/>
<path d="M17.4051 25.9351C18.3428 25.9351 19.2806 25.946 20.2183 25.9285C20.5107 25.9227 20.6568 26.0221 20.765 26.2874C21.4313 27.9093 22.2922 29.4442 23.329 30.8584C24.7726 32.8524 26.5242 34.6041 28.5183 36.0477C31.1162 37.9328 34.0708 39.2693 37.202 39.9755C39.6139 40.5273 42.0602 40.6625 44.5269 40.4783C50.6912 40.0053 56.4239 37.133 60.4932 32.4787C62.0992 30.6455 63.3973 28.5639 64.3369 26.3151C64.4488 26.0484 64.5738 25.9219 64.8932 25.9249C66.7935 25.9439 68.6938 25.9336 70.5941 25.9351C71.0092 25.9351 71.0158 25.9461 70.8864 26.3458C69.7181 29.9702 67.8453 33.3282 65.3755 36.2267C60.8719 41.5066 54.673 45.0566 47.84 46.2691C45.9356 46.6146 44.0012 46.7676 42.066 46.7259C39.1561 46.6698 36.2688 46.201 33.4905 45.3336C26.3972 43.1153 20.3969 38.3117 16.6801 31.8758C15.6843 30.1302 14.8655 28.2894 14.236 26.3809C14.0898 25.9424 14.1 25.9336 14.5554 25.9329C15.5055 25.9329 16.4557 25.9329 17.4058 25.9329L17.4051 25.9351Z" fill="#FBAD1B"/>
<path d="M20.6011 16.3103C20.6011 19.2207 20.596 22.1311 20.6084 25.0415C20.6084 25.3485 20.5266 25.4216 20.2269 25.4194C18.2778 25.4053 16.3288 25.4053 14.3798 25.4194C14.0998 25.4194 14.0421 25.3463 14.0428 25.0752C14.0516 20.8979 14.0538 16.7211 14.0494 12.5448C14.0494 11.9484 14.0494 11.9477 13.4713 11.9484C12.046 11.9484 10.6208 11.9616 9.19704 11.9484C8.91053 11.9484 8.83745 12.0215 8.83818 12.3065C8.84841 16.5567 8.83817 20.8068 8.85425 25.0562C8.85425 25.4216 8.75339 25.4845 8.41572 25.4815C6.50372 25.464 4.59171 25.464 2.67971 25.4815C2.38735 25.4815 2.32596 25.3982 2.32669 25.1161C2.33546 20.8536 2.32669 16.5917 2.33984 12.3292C2.33984 12.0368 2.2821 11.9287 1.96782 11.944C1.39626 11.9718 0.823249 11.944 0.250963 11.9557C0.0653173 11.9594 -0.000461448 11.9141 0.00100033 11.7153C0.00977099 10.3022 0.00977099 8.88915 0.00100033 7.47609C0.00100033 7.23344 0.106978 7.19178 0.307972 7.19397C0.794744 7.20055 1.28225 7.19397 1.76975 7.19397C2.33107 7.19397 2.33546 7.19397 2.33254 6.64727C2.32669 5.54362 2.46702 4.46337 2.9019 3.44159C3.67225 1.63337 5.07629 0.591122 6.96929 0.194249C8.46542 -0.120764 9.96594 -0.0301331 11.4635 0.222024C11.9021 0.295112 12.3508 0.352852 12.7879 0.463948C12.9816 0.512917 13.0072 0.562618 12.967 0.751918C12.6746 2.15328 12.3942 3.55682 12.1257 4.96257C12.0906 5.14456 12.0336 5.15771 11.8619 5.1314C11.2296 5.03346 10.6055 4.85659 9.95132 4.99546C9.2387 5.14602 8.95146 5.43399 8.85864 6.15026C8.72269 7.20128 8.72269 7.20128 9.74594 7.20128C13.2294 7.20128 16.712 7.2064 20.1976 7.19251C20.5426 7.19251 20.6099 7.29264 20.6084 7.61569C20.5967 10.5137 20.6018 13.4124 20.6011 16.3103Z" fill="#030303"/>
<path d="M64.4658 16.2696C64.4658 13.3606 64.4658 10.451 64.46 7.5413C64.46 7.2833 64.5002 7.1912 64.7889 7.1934C66.7491 7.20802 68.7091 7.20802 70.6689 7.1934C70.9612 7.1934 71 7.28695 71 7.54422C70.9926 13.3879 70.9926 19.2311 71 25.0739C71 25.3319 70.959 25.4232 70.6696 25.421C68.7094 25.405 66.7493 25.405 64.7896 25.421C64.4972 25.421 64.4614 25.3282 64.4622 25.0724C64.47 22.1376 64.4712 19.2034 64.4658 16.2696Z" fill="#030303"/>
</svg>
