<svg width="17" height="21" viewBox="0 0 17 21" fill="none" xmlns="http://www.w3.org/2000/svg">
<path fill-rule="evenodd" clip-rule="evenodd" d="M15.8511 5.85297C15.5089 6.23222 14.9541 6.23222 14.6119 5.85297L12.8663 3.91839V18.4697C12.8663 19.006 12.474 19.4408 11.9901 19.4408C11.5061 19.4408 11.1138 19.006 11.1138 18.4697V3.91876L9.36859 5.85297C9.0264 6.23222 8.4716 6.23222 8.1294 5.85297C7.78721 5.47372 7.78721 4.85884 8.1294 4.4796L11.3706 0.887401C11.7128 0.508155 12.2676 0.508155 12.6098 0.887401L15.8511 4.4796C16.1932 4.85884 16.1932 5.47372 15.8511 5.85297ZM4.98009 1.28186C4.49616 1.28186 4.10385 1.71664 4.10385 2.25298V17.0962L2.35863 15.162C2.01643 14.7827 1.46163 14.7827 1.11944 15.162C0.777245 15.5412 0.777245 16.1561 1.11944 16.5353L4.36067 20.1275C4.70286 20.5068 5.25766 20.5068 5.59986 20.1275L8.84109 16.5353C9.18328 16.1561 9.18328 15.5412 8.84109 15.162C8.4989 14.7827 7.94409 14.7827 7.6019 15.162L5.85633 17.0966V2.25298C5.85633 1.71664 5.46403 1.28186 4.98009 1.28186Z" fill="#424347"/>
</svg>
