<svg width="260" height="40" viewBox="0 0 260 40" fill="none" xmlns="http://www.w3.org/2000/svg">
<path d="M31.1278 24.1742L31.1277 24.1741L31.1195 24.1825C30.3728 24.9443 30.0423 26.0287 30.2078 27.08L30.2077 27.08L30.2101 27.0937L31.9877 37.4501C32.0762 37.9679 31.8639 38.4714 31.4856 38.7464L31.4745 38.7544L31.4637 38.7627C31.0978 39.0443 30.6216 39.0764 30.2254 38.8528L30.2255 38.8527L30.2151 38.8471L21.366 33.9885C21.3646 33.9877 21.3632 33.9869 21.3618 33.9862C20.9114 33.7346 20.4131 33.6007 19.9072 33.5855L19.8922 33.5851H19.8772H19.3352H19.2573L19.1803 33.5971C18.8791 33.6444 18.5809 33.7454 18.305 33.9029L9.46241 38.7799C9.22165 38.9055 8.95617 38.9489 8.69785 38.9084C8.08952 38.7789 7.61035 38.134 7.724 37.3767L9.50219 27.0286L9.50349 27.0211L9.50467 27.0135C9.66953 25.9575 9.33991 24.8726 8.59837 24.104L8.59839 24.104L8.59291 24.0984L1.37219 16.7308C1.37215 16.7308 1.3721 16.7307 1.37206 16.7307C1.37199 16.7306 1.37192 16.7305 1.37185 16.7305C1.0357 16.3869 0.907992 15.8537 1.06931 15.3652L1.06934 15.3652L1.07176 15.3576C1.23143 14.8609 1.62346 14.5339 2.05572 14.4602L11.9678 12.9465C13.0767 12.8175 14.0216 12.1076 14.4993 11.102L14.4993 11.102L14.5033 11.0934L18.8768 1.65416C18.9293 1.54996 18.9908 1.46033 19.0571 1.3868L19.1888 1.27896L19.2568 1.22331L19.314 1.15666C19.3248 1.14418 19.3363 1.13245 19.349 1.12135L19.4556 1.08017L19.4744 1.0729L19.493 1.06487L19.6426 1H20.2141C20.5913 1.05671 20.9412 1.30324 21.1359 1.69693L25.5675 11.0945C25.5679 11.0954 25.5683 11.0963 25.5687 11.0972C26.0231 12.0724 26.9167 12.7716 27.9749 12.9422L27.9748 12.9423L27.9831 12.9435L37.9218 14.4613L37.9241 14.4617C38.3665 14.5282 38.7715 14.8559 38.9401 15.3566C39.09 15.8508 38.9513 16.3817 38.6099 16.719L38.6068 16.722L31.1278 24.1742Z" fill="#FFC542" stroke="black" stroke-width="2"/>
<path d="M86.1278 24.1742L86.1277 24.1741L86.1195 24.1825C85.3728 24.9443 85.0423 26.0287 85.2078 27.08L85.2077 27.08L85.2101 27.0937L86.9877 37.4501C87.0762 37.9679 86.8639 38.4714 86.4856 38.7464L86.4745 38.7544L86.4637 38.7627C86.0978 39.0443 85.6216 39.0764 85.2254 38.8528L85.2255 38.8527L85.2151 38.8471L76.366 33.9885C76.3646 33.9877 76.3632 33.9869 76.3618 33.9862C75.9114 33.7346 75.4131 33.6007 74.9072 33.5855L74.8922 33.5851H74.8772H74.3352H74.2573L74.1803 33.5971C73.8791 33.6444 73.5809 33.7454 73.305 33.9029L64.4624 38.7799C64.2216 38.9055 63.9562 38.9489 63.6978 38.9084C63.0895 38.7789 62.6103 38.134 62.724 37.3767L64.5022 27.0286L64.5035 27.0211L64.5047 27.0135C64.6695 25.9575 64.3399 24.8726 63.5984 24.104L63.5984 24.104L63.5929 24.0984L56.3722 16.7308C56.3721 16.7308 56.3721 16.7307 56.3721 16.7307C56.372 16.7306 56.3719 16.7305 56.3719 16.7305C56.0357 16.3869 55.908 15.8537 56.0693 15.3652L56.0693 15.3652L56.0718 15.3576C56.2314 14.8609 56.6235 14.5339 57.0557 14.4602L66.9678 12.9465C68.0767 12.8175 69.0216 12.1076 69.4993 11.102L69.4993 11.102L69.5033 11.0934L73.8768 1.65416C73.9293 1.54996 73.9908 1.46033 74.0571 1.3868L74.1888 1.27896L74.2568 1.22331L74.314 1.15666C74.3248 1.14418 74.3363 1.13245 74.349 1.12135L74.4556 1.08017L74.4744 1.0729L74.493 1.06487L74.6426 1H75.2141C75.5913 1.05671 75.9412 1.30324 76.1359 1.69693L80.5675 11.0945C80.5679 11.0954 80.5683 11.0963 80.5687 11.0972C81.0231 12.0724 81.9167 12.7716 82.9749 12.9422L82.9748 12.9423L82.9831 12.9435L92.9218 14.4613L92.9241 14.4617C93.3665 14.5282 93.7715 14.8559 93.9401 15.3566C94.09 15.8508 93.9513 16.3817 93.6099 16.719L93.6068 16.722L86.1278 24.1742Z" fill="#FFC542" stroke="black" stroke-width="2"/>
<path d="M141.128 24.1742L141.128 24.1741L141.119 24.1825C140.373 24.9443 140.042 26.0287 140.208 27.08L140.208 27.08L140.21 27.0937L141.988 37.4501C142.076 37.9679 141.864 38.4714 141.486 38.7464L141.475 38.7544L141.464 38.7627C141.098 39.0443 140.622 39.0764 140.225 38.8528L140.225 38.8527L140.215 38.8471L131.366 33.9885C131.365 33.9877 131.363 33.9869 131.362 33.9862C130.911 33.7346 130.413 33.6007 129.907 33.5855L129.892 33.5851H129.877H129.335H129.257L129.18 33.5971C128.879 33.6444 128.581 33.7454 128.305 33.9029L119.462 38.7799C119.222 38.9055 118.956 38.9489 118.698 38.9084C118.09 38.7789 117.61 38.134 117.724 37.3767L119.502 27.0286L119.503 27.0211L119.505 27.0135C119.67 25.9575 119.34 24.8726 118.598 24.104L118.598 24.104L118.593 24.0984L111.372 16.7308C111.372 16.7308 111.372 16.7307 111.372 16.7307C111.372 16.7306 111.372 16.7305 111.372 16.7305C111.036 16.3869 110.908 15.8537 111.069 15.3652L111.069 15.3652L111.072 15.3576C111.231 14.8609 111.623 14.5339 112.056 14.4602L121.968 12.9465C123.077 12.8175 124.022 12.1076 124.499 11.102L124.499 11.102L124.503 11.0934L128.877 1.65416C128.929 1.54996 128.991 1.46033 129.057 1.3868L129.189 1.27896L129.257 1.22331L129.314 1.15666C129.325 1.14418 129.336 1.13245 129.349 1.12135L129.456 1.08017L129.474 1.0729L129.493 1.06487L129.643 1H130.214C130.591 1.05671 130.941 1.30324 131.136 1.69693L135.567 11.0945C135.568 11.0954 135.568 11.0963 135.569 11.0972C136.023 12.0724 136.917 12.7716 137.975 12.9422L137.975 12.9423L137.983 12.9435L147.922 14.4613L147.924 14.4617C148.367 14.5282 148.772 14.8559 148.94 15.3566C149.09 15.8508 148.951 16.3817 148.61 16.719L148.607 16.722L141.128 24.1742Z" fill="#FFC542" stroke="black" stroke-width="2"/>
<path d="M196.128 24.1742L196.128 24.1741L196.119 24.1825C195.373 24.9443 195.042 26.0287 195.208 27.08L195.208 27.08L195.21 27.0937L196.988 37.4501C197.076 37.9679 196.864 38.4714 196.486 38.7464L196.475 38.7544L196.464 38.7627C196.098 39.0443 195.622 39.0764 195.225 38.8528L195.225 38.8527L195.215 38.8471L186.366 33.9885C186.365 33.9877 186.363 33.9869 186.362 33.9862C185.911 33.7346 185.413 33.6007 184.907 33.5855L184.892 33.5851H184.877H184.335H184.257L184.18 33.5971C183.879 33.6444 183.581 33.7454 183.305 33.9029L174.462 38.7799C174.222 38.9055 173.956 38.9489 173.698 38.9084C173.09 38.7789 172.61 38.134 172.724 37.3767L174.502 27.0286L174.503 27.0211L174.505 27.0135C174.67 25.9575 174.34 24.8726 173.598 24.104L173.598 24.104L173.593 24.0984L166.372 16.7308C166.372 16.7308 166.372 16.7307 166.372 16.7307C166.372 16.7306 166.372 16.7305 166.372 16.7305C166.036 16.3869 165.908 15.8537 166.069 15.3652L166.069 15.3652L166.072 15.3576C166.231 14.8609 166.623 14.5339 167.056 14.4602L176.968 12.9465C178.077 12.8175 179.022 12.1076 179.499 11.102L179.499 11.102L179.503 11.0934L183.877 1.65416C183.929 1.54996 183.991 1.46033 184.057 1.3868L184.189 1.27896L184.257 1.22331L184.314 1.15666C184.325 1.14418 184.336 1.13245 184.349 1.12135L184.456 1.08017L184.474 1.0729L184.493 1.06487L184.643 1H185.214C185.591 1.05671 185.941 1.30324 186.136 1.69693L190.567 11.0945C190.568 11.0954 190.568 11.0963 190.569 11.0972C191.023 12.0724 191.917 12.7716 192.975 12.9422L192.975 12.9423L192.983 12.9435L202.922 14.4613L202.924 14.4617C203.367 14.5282 203.772 14.8559 203.94 15.3566C204.09 15.8508 203.951 16.3817 203.61 16.719L203.607 16.722L196.128 24.1742Z" fill="#FFC542" stroke="black" stroke-width="2"/>
<path opacity="0.5" d="M251.128 24.1742L251.128 24.1741L251.119 24.1825C250.373 24.9443 250.042 26.0287 250.208 27.08L250.208 27.08L250.21 27.0937L251.988 37.4501C252.076 37.9679 251.864 38.4714 251.486 38.7464L251.475 38.7544L251.464 38.7627C251.098 39.0443 250.622 39.0764 250.225 38.8528L250.225 38.8527L250.215 38.8471L241.366 33.9885C241.365 33.9877 241.363 33.9869 241.362 33.9862C240.911 33.7346 240.413 33.6007 239.907 33.5855L239.892 33.5851H239.877H239.335H239.257L239.18 33.5971C238.879 33.6444 238.581 33.7454 238.305 33.9029L229.462 38.7799C229.222 38.9055 228.956 38.9489 228.698 38.9084C228.09 38.7789 227.61 38.134 227.724 37.3767L229.502 27.0286L229.503 27.0211L229.505 27.0135C229.67 25.9575 229.34 24.8726 228.598 24.104L228.598 24.104L228.593 24.0984L221.372 16.7308C221.372 16.7308 221.372 16.7307 221.372 16.7307C221.372 16.7306 221.372 16.7305 221.372 16.7305C221.036 16.3869 220.908 15.8537 221.069 15.3652L221.069 15.3652L221.072 15.3576C221.231 14.8609 221.623 14.5339 222.056 14.4602L231.968 12.9465C233.077 12.8175 234.022 12.1076 234.499 11.102L234.499 11.102L234.503 11.0934L238.877 1.65416C238.929 1.54996 238.991 1.46033 239.057 1.3868L239.189 1.27896L239.257 1.22331L239.314 1.15666C239.325 1.14418 239.336 1.13245 239.349 1.12135L239.456 1.08017L239.474 1.0729L239.493 1.06487L239.643 1H240.214C240.591 1.05671 240.941 1.30324 241.136 1.69693L245.567 11.0945C245.568 11.0954 245.568 11.0963 245.569 11.0972C246.023 12.0724 246.917 12.7716 247.975 12.9422L247.975 12.9423L247.983 12.9435L257.922 14.4613L257.924 14.4617C258.367 14.5282 258.772 14.8559 258.94 15.3566C259.09 15.8508 258.951 16.3817 258.61 16.719L258.607 16.722L251.128 24.1742Z" stroke="black" stroke-width="2"/>
</svg>
