<svg width="16" height="14" viewBox="0 0 16 14" fill="none" xmlns="http://www.w3.org/2000/svg">
<path d="M6.4 14H1.6C0.716344 14 0 13.3036 0 12.4444V4.66667C0 3.80756 0.716344 3.11111 1.6 3.11111H2.4V1.55556C2.4 0.696446 3.11634 0 4 0H14.4C15.2837 0 16 0.696446 16 1.55556V10.1111C16 10.9702 15.2837 11.6667 14.4 11.6667H8V12.4444C8 13.3036 7.28366 14 6.4 14ZM1.6 4.66667V12.4444H6.4V4.66667H1.6ZM4 3.11111H6.4C7.28366 3.11111 8 3.80756 8 4.66667V10.1111H14.4V1.55556H4V3.11111Z" fill="#FFC542"/>
</svg>
