<svg width="26" height="26" viewBox="0 0 26 26" fill="none" xmlns="http://www.w3.org/2000/svg">
<path d="M21.9375 9.27405V21.125C21.9375 21.3405 21.8519 21.5472 21.6995 21.6995C21.5472 21.8519 21.3405 21.9375 21.125 21.9375H4.875C4.65951 21.9375 4.45285 21.8519 4.30048 21.6995C4.1481 21.5472 4.0625 21.3405 4.0625 21.125V4.875C4.0625 4.65951 4.1481 4.45285 4.30048 4.30048C4.45285 4.1481 4.65951 4.0625 4.875 4.0625H16.726C16.8327 4.0625 16.9383 4.08352 17.0369 4.12435C17.1355 4.16518 17.225 4.22503 17.3005 4.30048L21.6995 8.69952C21.775 8.77497 21.8348 8.86454 21.8757 8.96312C21.9165 9.06169 21.9375 9.16735 21.9375 9.27405Z" stroke="white" stroke-width="1.5" stroke-linecap="round" stroke-linejoin="round"/>
<path d="M13.0005 18.6885C14.571 18.6885 15.8442 17.4153 15.8442 15.8447C15.8442 14.2742 14.571 13.001 13.0005 13.001C11.4299 13.001 10.1567 14.2742 10.1567 15.8447C10.1567 17.4153 11.4299 18.6885 13.0005 18.6885Z" stroke="white" stroke-width="1.5" stroke-linecap="round" stroke-linejoin="round"/>
<path d="M16.25 9.75098H9.75V4.06348" stroke="white" stroke-width="1.5" stroke-linecap="round" stroke-linejoin="round"/>
</svg>
