<svg width="26" height="26" viewBox="0 0 26 26" fill="none" xmlns="http://www.w3.org/2000/svg">
<g clip-path="url(#clip0)">
<path fill-rule="evenodd" clip-rule="evenodd" d="M24.0846 12.7279C24.0846 13.0161 23.9196 13.2787 23.66 13.4037L9.34106 20.298C9.06399 20.4314 8.73356 20.3821 8.50743 20.1737C8.2813 19.9653 8.2053 19.64 8.31569 19.353L10.8638 12.7279L8.3157 6.10289C8.2053 5.81587 8.2813 5.49055 8.50743 5.28215C8.73356 5.07375 9.064 5.0245 9.34107 5.15791L23.66 12.0522C23.9196 12.1772 24.0846 12.4398 24.0846 12.7279ZM12.1825 13.4779L10.3948 18.1258L20.0481 13.4779H12.1825ZM20.0481 11.9779L10.3948 7.33008L12.1825 11.9779H20.0481Z" fill="white"/>
</g>
<defs>
<clipPath id="clip0">
<rect width="18" height="18" fill="white" transform="translate(12.728) rotate(45)"/>
</clipPath>
</defs>
</svg>
