<svg width="20" height="21" viewBox="0 0 20 21" fill="none" xmlns="http://www.w3.org/2000/svg">
<path fill-rule="evenodd" clip-rule="evenodd" d="M7.79649 19.3914C7.35559 19.2812 7.04628 18.8851 7.04628 18.4306V10.8793L0.35837 3.23601C0.251348 3.1137 0.176071 2.96694 0.139175 2.80866C0.0450459 2.40485 0.0485077 2.04589 0.107182 1.66465L0.113728 1.62365C0.1 1.11856 0.430004 0.602966 1.10374 0.602966H18.9314C19.6051 0.602966 19.9351 1.11856 19.9214 1.62365L19.9279 1.66465C19.9866 2.04589 19.9901 2.40485 19.8959 2.80866C19.859 2.96694 19.7838 3.1137 19.6767 3.23601L12.9888 10.8793V19.421C12.9888 20.0654 12.3833 20.5381 11.7582 20.3819L7.79649 19.3914ZM8.78219 9.85498C8.94017 10.0355 9.02724 10.2673 9.02724 10.5072V17.6573L11.0081 18.1525V10.5072C11.0081 10.2673 11.0952 10.0355 11.2531 9.85498L17.6154 2.58379H2.4199L8.78219 9.85498Z" fill="#424347"/>
</svg>
