<svg width="86" height="18" viewBox="0 0 86 18" fill="none" xmlns="http://www.w3.org/2000/svg">
<path d="M1 17.0001V7.00007H5C5.5 6.16673 6.7 4.00007 7.5 2.00007C9.5 0.400066 11 2.00007 11.5 3.00007L11 7.00007H14C15 7.3334 17 8.80007 17 12.0001C17 15.2001 15 16.6667 14 17.0001H1Z" fill="#FFC542"/>
<path fill-rule="evenodd" clip-rule="evenodd" d="M10.0319 5.64049L9.60067 8.00003H11.9993H13.6306C14.0408 8.00003 14.5862 8.22437 15.1035 8.93476C15.6195 9.64331 16 10.7206 16 12C16 13.2795 15.6195 14.3568 15.1035 15.0653C14.5862 15.7757 14.0408 16 13.6306 16H6.00001V7.91483L6.48336 6.78913L8.20189 2.78679C8.31439 2.61541 8.57049 2.39755 8.99786 2.27757C9.46791 2.14561 9.86607 2.2126 10.0681 2.32029C10.363 2.47748 10.4733 2.59642 10.5057 2.63691C10.5293 2.66638 10.5326 2.6777 10.5373 2.70123C10.5458 2.74403 10.5556 2.84281 10.5319 3.04009C10.507 3.24786 10.4583 3.4732 10.3842 3.80468L10.3812 3.8184C10.3434 3.98732 10.2978 4.19098 10.2594 4.39577L10.2593 4.39576L10.2576 4.40551L10.0319 5.64049ZM11.0089 0.555392C9.5208 -0.237887 7.22587 0.360673 6.40938 1.89233L4.64561 6.00003L4 6.00003H1C0.447715 6.00003 0 6.44775 0 7.00003V17C0 17.5523 0.447715 18 1 18L4.00001 18H6.00001H13.6306C16.0437 18 18 15.3137 18 12C18 8.87026 16.2549 6.30019 14.0279 6.02451C13.8971 6.00831 13.7645 6.00003 13.6306 6.00003H11.9993L12.225 4.76506C12.2571 4.59425 12.2962 4.41908 12.336 4.24102L12.3361 4.24054C12.3539 4.16091 12.3719 4.08069 12.3894 4.00003C12.6481 2.80624 12.8091 1.51501 11.0089 0.555392ZM2 16V8.00003H4V16H2Z" fill="#222222"/>
<path fill-rule="evenodd" clip-rule="evenodd" d="M75.9681 12.3595L76.3993 9.99998H74.0007H72.3694C71.9592 9.99998 71.4138 9.77564 70.8965 9.06526C70.3805 8.3567 70 7.27945 70 5.99998C70 4.72052 70.3805 3.64327 70.8965 2.93471C71.4138 2.22433 71.9592 1.99998 72.3694 1.99998H80V10.0852L79.5166 11.2109L77.7981 15.2132C77.6856 15.3846 77.4295 15.6025 77.0021 15.7224C76.5321 15.8544 76.1339 15.7874 75.9319 15.6797C75.637 15.5225 75.5267 15.4036 75.4943 15.3631C75.4707 15.3336 75.4674 15.3223 75.4627 15.2988C75.4542 15.256 75.4444 15.1572 75.4681 14.9599C75.493 14.7522 75.5417 14.5268 75.6158 14.1953L75.6188 14.1816C75.6566 14.0127 75.7022 13.809 75.7406 13.6042L75.7407 13.6043L75.7424 13.5945L75.9681 12.3595ZM74.9911 17.4446C76.4792 18.2379 78.7741 17.6393 79.5906 16.1077L81.3544 12L82 12H85C85.5523 12 86 11.5523 86 11V0.999987C86 0.447702 85.5523 -1.33573e-05 85 -1.33573e-05L82 -1.52647e-05H80H72.3694C69.9563 -1.52647e-05 68 2.68628 68 5.99998C68 9.12975 69.7451 11.6998 71.9721 11.9755C72.1029 11.9917 72.2355 12 72.3694 12H74.0007L73.775 13.235C73.7429 13.4058 73.7038 13.5809 73.664 13.759L73.6639 13.7594C73.6461 13.8391 73.6281 13.9193 73.6106 14C73.3519 15.1938 73.1909 16.485 74.9911 17.4446ZM84 1.99999V9.99999H82V1.99999H84Z" fill="#222222"/>
</svg>
